<svg width="660" height="250" viewBox="0 0 660 250" fill="none" xmlns="http://www.w3.org/2000/svg">
<path d="M66.4399 37.2577L33.7934 69.9041C23.3262 80.3714 23.3262 97.3444 33.7934 107.812L66.4399 140.458C76.7192 150.737 76.7192 167.413 66.4399 177.708L15.8418 127.11C-5.28059 105.988 -5.28059 71.7439 15.8418 50.6138L66.4399 0C76.7192 10.2793 76.7192 26.9549 66.4399 37.2499V37.2577Z" fill="#DFF2F1"/>
<path d="M66.8389 212.758L99.4854 180.111C109.953 169.644 109.953 152.671 99.4854 142.204L66.8389 109.557C56.5596 99.2782 56.5596 82.6026 66.8389 72.3076L117.437 122.906C138.559 144.028 138.559 178.272 117.437 199.402L66.8389 250C56.5596 239.721 56.5596 223.045 66.8389 212.75V212.766V212.758Z" fill="#DFF2F1"/>
<path d="M405.188 66.6797C378.914 66.7266 361.842 84.669 361.682 112.423V149.5C361.682 153.184 363.403 157.591 371.621 157.591C379.838 157.591 381.158 153.184 381.158 149.5V112.423C381.158 93.9517 390.34 82.4722 405.081 82.4722H405.309C420.083 82.4722 429.266 93.9517 429.266 112.423V149.5C429.266 153.184 430.92 157.591 438.803 157.591C446.686 157.591 448.742 153.184 448.742 149.5V112.423C448.581 84.6891 431.502 66.7266 405.235 66.6998" fill="#DFF2F1"/>
<path d="M651.929 66.6797H651.513C625.239 66.7266 608.168 84.669 608.007 112.423V149.5C608.007 153.184 609.728 157.591 617.946 157.591C626.164 157.591 627.483 153.184 627.483 149.5V112.423C627.483 93.9517 636.665 82.4722 651.406 82.4722H651.694C653.75 82.4856 655.893 81.6552 657.421 80.1281C658.901 78.648 659.718 76.6857 659.718 74.5961C659.718 70.2695 656.228 66.7333 651.935 66.6864" fill="#DFF2F1"/>
<path d="M215.229 81.7622C201.532 75.9287 189.698 70.8922 189.698 59.895C189.698 49.7953 198.572 43.272 212.322 43.272C219.736 43.272 226.179 45.1875 233.868 49.6547C234.685 50.1235 235.395 50.5521 236.038 50.9406C238.482 52.4207 239.942 53.3048 241.663 53.3048C246.358 53.3048 250.136 48.0339 250.136 43.6739C250.136 39.8496 246.693 37.0635 242.963 34.639C234.651 29.2208 223.473 26.1199 212.302 26.1199C187.367 26.1199 170.61 40.0773 170.61 60.8461C170.61 82.7467 189.564 90.864 206.288 98.0169C220.921 104.286 233.56 109.69 233.56 122.442C233.56 134.002 223.46 141.771 208.431 141.771C200.233 141.771 193.094 139.347 185.231 133.875L183.476 132.683C180.549 130.687 178.942 129.595 176.578 129.595C172.01 129.595 168.105 134.786 168.105 139.032C168.105 142.233 170.242 145.187 175.017 148.596C184.28 155.334 195.759 158.883 208.237 158.883C234.778 158.883 252.627 143.834 252.627 121.438C252.627 97.6418 232.756 89.1696 215.215 81.7086" fill="#DFF2F1"/>
<path d="M288.686 118.585H331.858C338.817 118.585 345.929 117.071 345.929 105.866C345.929 82.7936 330.385 66.6863 308.116 66.6863C283.724 66.6863 267.971 84.7895 267.971 112.812C267.971 140.834 284.306 158.167 310.627 158.167C321.37 158.167 330.579 155.628 337.993 150.612C342.286 147.812 344.201 145.16 344.201 141.959C344.201 137.893 341.034 133.487 335.923 133.487C333.673 133.487 331.644 134.839 328.831 136.721L328.429 136.996C323.848 140.05 318.122 141.597 311.404 141.597C297.674 141.597 289.503 134.478 287.112 120.44C287.032 119.971 287.159 119.509 287.467 119.154C287.776 118.786 288.224 118.578 288.706 118.578M287.307 101.942C289.57 89.2567 296.824 82.2779 307.727 82.2779C318.631 82.2779 326.299 89.6585 327.324 102.035C327.357 102.484 327.21 102.906 326.909 103.241C326.601 103.562 326.199 103.757 325.75 103.757H288.82C288.372 103.757 287.936 103.562 287.648 103.207C287.36 102.852 287.233 102.404 287.313 101.955" fill="#DFF2F1"/>
<path d="M477.333 67.644C469.698 67.644 468.091 72.0509 468.091 75.7345V149.5C468.091 153.184 469.765 157.591 477.722 157.591C485.678 157.591 486.964 153.184 486.964 149.5V75.7345C486.964 72.0509 485.29 67.644 477.333 67.644Z" fill="#DFF2F1"/>
<path d="M547.676 66.6797C521.181 66.6797 504.056 84.7829 504.056 112.805C504.056 140.827 521.02 158.548 547.288 158.548C573.555 158.548 591.102 140.445 591.102 112.423C591.102 84.4011 574.057 66.6797 547.676 66.6797ZM547.676 142.575C532.995 142.575 523.512 130.741 523.512 112.43C523.512 94.1191 532.694 82.4789 547.468 82.4789C562.243 82.4789 571.439 94.1057 571.439 112.818C571.439 131.531 562.323 142.582 547.656 142.582" fill="#DFF2F1"/>
<path d="M477.501 28.8926C470.575 28.8926 465.559 33.842 465.559 40.6399C465.559 47.4378 470.575 52.5814 477.501 52.5814C484.426 52.5814 489.442 47.5516 489.442 40.6399C489.442 33.7281 484.426 28.8926 477.501 28.8926Z" fill="#DFF2F1"/>
<path d="M192.88 194.246C191.714 194.246 191.152 194.761 191.152 195.759V211.733C191.152 213.333 190.937 214.666 190.502 215.791C189.424 218.557 187.133 219.85 183.985 219.85C180.838 219.85 178.547 218.557 177.469 215.791C177.08 214.8 176.819 213.762 176.819 211.733V195.759C176.819 194.768 176.216 194.246 174.964 194.246C173.712 194.246 173.149 194.761 173.149 195.759V211.733C173.149 213.976 173.45 215.878 174.1 217.385C175.828 221.444 179.324 223.038 183.898 223.038C188.473 223.038 192.016 221.397 193.697 217.385C194.346 215.831 194.648 213.929 194.648 211.686V195.753C194.648 194.761 194.045 194.239 192.88 194.239V194.246ZM219.817 194.246C218.651 194.246 218.089 194.761 218.089 195.759V217.385L204.573 196.101C203.924 195.023 203.107 194.246 201.379 194.246C199.825 194.246 199.001 194.895 199.001 196.275V221.23C199.001 222.221 199.604 222.743 200.769 222.743C201.935 222.743 202.497 222.228 202.497 221.23V199.215L216.401 220.801C217.178 222.053 217.915 222.743 219.422 222.743C220.848 222.743 221.578 222.094 221.578 220.714V195.759C221.578 194.768 220.975 194.246 219.81 194.246H219.817ZM227.813 194.246C226.561 194.246 225.998 194.761 225.998 195.759V221.23C225.998 222.221 226.601 222.743 227.854 222.743C229.106 222.743 229.669 222.228 229.669 221.23V195.759C229.669 194.768 229.066 194.246 227.813 194.246ZM240.894 194.159C239.125 194.159 236.962 194.333 235.844 194.587C234.029 195.016 234.029 196.101 234.029 197.219V219.756C234.029 220.962 234.029 221.913 235.844 222.388C237.096 222.69 239.079 222.817 240.766 222.817C250.652 222.817 256.478 217.68 256.478 208.397C256.478 199.115 250.906 194.152 240.894 194.152V194.159ZM240.894 219.629C239.855 219.629 238.737 219.542 237.699 219.368V197.608C238.737 197.434 239.855 197.347 240.894 197.347C248.535 197.347 252.634 201.278 252.634 208.484C252.634 215.691 248.575 219.622 240.894 219.622V219.629ZM271.286 196.188C270.771 194.808 270.295 194.246 268.695 194.246C267.228 194.246 266.665 194.721 266.103 196.188L256.733 220.406C256.606 220.754 256.432 221.31 256.432 221.698C256.432 222.301 256.82 222.737 258.072 222.737C259.325 222.737 259.841 222.261 260.142 221.357L262.52 215.055H274.608L276.939 221.357C277.241 222.348 277.803 222.737 279.096 222.737C280.388 222.737 280.777 222.308 280.777 221.698C280.777 221.31 280.603 220.747 280.475 220.406L271.28 196.188H271.286ZM263.692 211.9L268.614 198.82L273.45 211.9H263.692ZM289.986 194.159C288.218 194.159 286.054 194.333 284.936 194.587C283.121 195.016 283.121 196.101 283.121 197.219V219.756C283.121 220.962 283.121 221.913 284.936 222.388C286.188 222.69 288.171 222.817 289.858 222.817C299.744 222.817 305.571 217.68 305.571 208.397C305.571 199.115 299.998 194.152 289.986 194.152V194.159ZM289.986 219.629C288.948 219.629 287.829 219.542 286.791 219.368V197.608C287.829 197.434 288.948 197.347 289.986 197.347C297.628 197.347 301.726 201.278 301.726 208.484C301.726 215.691 297.668 219.622 289.986 219.622V219.629ZM323.794 219.24H312.181V209.569H321.765C322.756 209.569 323.279 209.007 323.279 207.928C323.279 206.85 322.763 206.328 321.765 206.328H312.181V197.735H323.446C324.437 197.735 324.96 197.172 324.96 196.094C324.96 195.016 324.444 194.453 323.446 194.453H310.54C309.201 194.453 308.638 195.016 308.638 196.355V220.62C308.638 221.96 309.201 222.522 310.54 222.522H323.794C324.786 222.522 325.308 221.96 325.308 220.881C325.308 219.803 324.792 219.24 323.794 219.24ZM355.962 194.246C354.797 194.246 354.234 194.761 354.234 195.759V217.385L340.719 196.101C340.069 195.023 339.252 194.246 337.524 194.246C335.97 194.246 335.147 194.895 335.147 196.275V221.23C335.147 222.221 335.749 222.743 336.915 222.743C338.08 222.743 338.643 222.228 338.643 221.23V199.215L352.546 220.801C353.323 222.053 354.06 222.743 355.567 222.743C356.994 222.743 357.724 222.094 357.724 220.714V195.759C357.724 194.768 357.121 194.246 355.956 194.246H355.962ZM374.353 193.938C366.149 193.938 360.838 199.677 360.838 208.484C360.838 217.292 366.149 223.031 374.353 223.031C382.558 223.031 387.822 217.292 387.822 208.484C387.822 199.677 382.511 193.938 374.353 193.938ZM374.353 219.843C368.48 219.843 364.642 215.443 364.642 208.491C364.642 201.539 368.486 197.139 374.353 197.139C380.22 197.139 384.024 201.546 384.024 208.491C384.024 215.436 380.18 219.843 374.353 219.843ZM402.764 211.25C406.474 209.824 408.55 206.931 408.55 203.006C408.55 197.219 404.103 194.159 397.326 194.159C395.732 194.159 393.83 194.333 392.751 194.634C390.936 195.063 390.896 196.014 390.896 197.226V221.23C390.896 222.221 391.499 222.743 392.664 222.743C393.83 222.743 394.432 222.228 394.432 221.23V212.161C394.995 212.248 396.073 212.289 396.549 212.289C397.5 212.289 398.404 212.248 399.268 212.114L405.483 221.049C406.22 222.214 406.736 222.73 408.249 222.73C409.502 222.73 409.977 222.382 409.977 221.739C409.977 221.35 409.763 220.915 408.852 219.622L402.764 211.25ZM396.683 209.134C395.946 209.134 395.169 209.094 394.479 209.007V197.608C395.343 197.434 396.334 197.347 397.285 197.347C401.82 197.347 404.753 199.202 404.753 203.173C404.753 206.884 402.034 209.134 396.683 209.134ZM429.708 194.46H410.58C409.589 194.46 409.066 195.023 409.066 196.101C409.066 197.179 409.582 197.742 410.58 197.742H418.309V221.23C418.309 222.221 418.911 222.743 420.164 222.743C421.416 222.743 421.979 222.228 421.979 221.23V197.742H429.708C430.699 197.742 431.221 197.179 431.221 196.101C431.221 195.023 430.706 194.46 429.708 194.46ZM448.494 219.24H436.881V209.569H446.465C447.456 209.569 447.978 209.007 447.978 207.928C447.978 206.85 447.463 206.328 446.465 206.328H436.881V197.735H448.146C449.137 197.735 449.659 197.172 449.659 196.094C449.659 195.016 449.144 194.453 448.146 194.453H435.24C433.9 194.453 433.338 195.016 433.338 196.355V220.62C433.338 221.96 433.9 222.522 435.24 222.522H448.494C449.485 222.522 450.008 221.96 450.008 220.881C450.008 219.803 449.492 219.24 448.494 219.24ZM466.711 194.159C464.943 194.159 462.78 194.333 461.661 194.587C459.846 195.016 459.846 196.101 459.846 197.219V219.756C459.846 220.962 459.846 221.913 461.661 222.388C462.914 222.69 464.896 222.817 466.584 222.817C476.469 222.817 482.296 217.68 482.296 208.397C482.296 199.115 476.724 194.152 466.711 194.152V194.159ZM466.711 219.629C465.673 219.629 464.554 219.542 463.516 219.368V197.608C464.554 197.434 465.673 197.347 466.711 197.347C474.353 197.347 478.452 201.278 478.452 208.484C478.452 215.691 474.393 219.622 466.711 219.622V219.629ZM497.586 193.938C489.382 193.938 484.071 199.677 484.071 208.484C484.071 217.292 489.382 223.031 497.586 223.031C505.791 223.031 511.055 217.292 511.055 208.484C511.055 199.677 505.744 193.938 497.586 193.938ZM497.586 219.843C491.713 219.843 487.875 215.443 487.875 208.491C487.875 201.539 491.719 197.139 497.586 197.139C503.453 197.139 507.257 201.546 507.257 208.491C507.257 215.436 503.413 219.843 497.586 219.843ZM527.812 194.159C526.211 194.159 524.269 194.333 523.15 194.587C521.335 195.016 521.335 196.101 521.335 197.219V221.223C521.335 222.214 521.938 222.737 523.191 222.737C524.443 222.737 525.006 222.221 525.006 221.223V213.494C525.997 213.708 527.075 213.795 528.24 213.795C534.543 213.795 539.338 210.514 539.338 203.863C539.338 197.213 534.462 194.152 527.812 194.152V194.159ZM527.986 210.648C527.082 210.648 526.044 210.561 525.006 210.346V197.608C525.997 197.434 526.948 197.347 527.772 197.347C532.132 197.347 535.5 199.249 535.5 203.997C535.5 208.317 532.694 210.648 527.986 210.648ZM552.552 196.188C552.036 194.808 551.561 194.246 549.96 194.246C548.493 194.246 547.931 194.721 547.368 196.188L537.999 220.406C537.871 220.754 537.697 221.31 537.697 221.698C537.697 222.301 538.086 222.737 539.338 222.737C540.59 222.737 541.106 222.261 541.408 221.357L543.785 215.055H555.874L558.205 221.357C558.506 222.348 559.069 222.737 560.361 222.737C561.654 222.737 562.042 222.308 562.042 221.698C562.042 221.31 561.868 220.747 561.741 220.406L552.545 196.188H552.552ZM544.951 211.9L549.873 198.82L554.709 211.9H544.951ZM576.254 211.25C579.965 209.824 582.041 206.931 582.041 203.006C582.041 197.219 577.594 194.159 570.816 194.159C569.222 194.159 567.32 194.333 566.242 194.634C564.427 195.063 564.387 196.014 564.387 197.226V221.23C564.387 222.221 564.989 222.743 566.155 222.743C567.32 222.743 567.923 222.228 567.923 221.23V212.161C568.485 212.248 569.564 212.289 570.039 212.289C570.99 212.289 571.894 212.248 572.758 212.114L578.974 221.049C579.71 222.214 580.226 222.73 581.74 222.73C582.992 222.73 583.468 222.382 583.468 221.739C583.468 221.35 583.253 220.915 582.342 219.622L576.254 211.25ZM570.166 209.134C569.43 209.134 568.653 209.094 567.963 209.007V197.608C568.827 197.434 569.818 197.347 570.769 197.347C575.303 197.347 578.237 199.202 578.237 203.173C578.237 206.884 575.518 209.134 570.166 209.134ZM598.577 196.188C598.061 194.808 597.586 194.246 595.985 194.246C594.518 194.246 593.956 194.721 593.393 196.188L584.023 220.406C583.896 220.754 583.722 221.31 583.722 221.698C583.722 222.301 584.11 222.737 585.363 222.737C586.615 222.737 587.131 222.261 587.432 221.357L589.81 215.055H601.899L604.23 221.357C604.531 222.348 605.094 222.737 606.386 222.737C607.679 222.737 608.067 222.308 608.067 221.698C608.067 221.31 607.893 220.747 607.766 220.406L598.57 196.188H598.577ZM590.982 211.9L595.905 198.82L600.74 211.9H590.982ZM631.22 194.246C630.055 194.246 629.492 194.761 629.492 195.759V217.385L615.977 196.101C615.327 195.023 614.51 194.246 612.782 194.246C611.228 194.246 610.405 194.895 610.405 196.275V221.23C610.405 222.221 611.007 222.743 612.173 222.743C613.338 222.743 613.901 222.228 613.901 221.23V199.215L627.805 220.801C628.581 222.053 629.318 222.743 630.825 222.743C632.252 222.743 632.982 222.094 632.982 220.714V195.759C632.982 194.768 632.379 194.246 631.214 194.246H631.22ZM646.075 192.216C646.551 192.216 647.113 192.002 649.397 190.575C651.339 189.37 652.632 188.807 652.632 187.856C652.632 187.12 652.116 186.088 651.078 186.088C650.562 186.088 650.127 186.302 649.437 186.778L646.156 188.981C645.204 189.631 644.642 189.973 644.642 190.709C644.642 191.399 645.158 192.223 646.068 192.223L646.075 192.216ZM659.416 220.406L650.221 196.188C649.705 194.808 649.23 194.246 647.629 194.246C646.162 194.246 645.6 194.721 645.037 196.188L635.667 220.406C635.54 220.754 635.366 221.31 635.366 221.698C635.366 222.301 635.754 222.737 637.007 222.737C638.259 222.737 638.775 222.261 639.076 221.357L641.454 215.055H653.543L655.873 221.357C656.175 222.348 656.737 222.737 658.03 222.737C659.323 222.737 659.711 222.308 659.711 221.698C659.711 221.31 659.537 220.747 659.41 220.406H659.416ZM642.619 211.9L647.542 198.82L652.377 211.9H642.619Z" fill="#DFF2F1"/>
</svg>
