<svg width="978" height="354" viewBox="0 0 978 354" fill="none" xmlns="http://www.w3.org/2000/svg">
<path d="M84.865 47.59L43.165 89.29C29.795 102.66 29.795 124.34 43.165 137.71L84.865 179.41C97.995 192.54 97.995 213.84 84.865 226.99L20.235 162.36C-6.745 135.38 -6.745 91.64 20.235 64.65L84.865 0C97.995 13.13 97.995 34.43 84.865 47.58V47.59Z" fill="#00958B"/>
<path d="M85.3748 271.76L127.075 230.06C140.445 216.69 140.445 195.01 127.075 181.64L85.3748 139.94C72.2448 126.81 72.2448 105.51 85.3748 92.3599L150.005 156.99C176.985 183.97 176.985 227.71 150.005 254.7L85.3748 319.33C72.2448 306.2 72.2448 284.9 85.3748 271.75V271.77V271.76Z" fill="#00958B"/>
<path d="M597.965 119.75C558.735 119.82 533.245 146.61 533.005 188.05V243.41C533.005 248.91 535.575 255.49 547.845 255.49C560.115 255.49 562.085 248.91 562.085 243.41V188.05C562.085 160.47 575.795 143.33 597.805 143.33H598.145C620.205 143.33 633.915 160.47 633.915 188.05V243.41C633.915 248.91 636.385 255.49 648.155 255.49C659.925 255.49 662.995 248.91 662.995 243.41V188.05C662.755 146.64 637.255 119.82 598.035 119.78" fill="#00958B"/>
<path d="M966.375 119.75H965.755C926.525 119.82 901.035 146.61 900.795 188.05V243.41C900.795 248.91 903.365 255.49 915.635 255.49C927.905 255.49 929.875 248.91 929.875 243.41V188.05C929.875 160.47 943.585 143.33 965.595 143.33H966.025C969.095 143.35 972.295 142.11 974.575 139.83C976.785 137.62 978.005 134.69 978.005 131.57C978.005 125.11 972.795 119.83 966.385 119.76" fill="#00958B"/>
<path d="M314.335 142.27C293.885 133.56 276.215 126.04 276.215 109.62C276.215 94.5399 289.465 84.7999 309.995 84.7999C321.065 84.7999 330.685 87.6599 342.165 94.3299C343.385 95.0299 344.445 95.6699 345.405 96.2499C349.055 98.4599 351.235 99.7799 353.805 99.7799C360.815 99.7799 366.455 91.9099 366.455 85.3999C366.455 79.6899 361.315 75.5299 355.745 71.9099C343.335 63.8199 326.645 59.1899 309.965 59.1899C272.735 59.1899 247.715 80.0299 247.715 111.04C247.715 143.74 276.015 155.86 300.985 166.54C322.835 175.9 341.705 183.97 341.705 203.01C341.705 220.27 326.625 231.87 304.185 231.87C291.945 231.87 281.285 228.25 269.545 220.08L266.925 218.3C262.555 215.32 260.155 213.69 256.625 213.69C249.805 213.69 243.975 221.44 243.975 227.78C243.975 232.56 247.165 236.97 254.295 242.06C268.125 252.12 285.265 257.42 303.895 257.42C343.525 257.42 370.175 234.95 370.175 201.51C370.175 165.98 340.505 153.33 314.315 142.19" fill="#00958B"/>
<path d="M424.015 197.25H488.475C498.865 197.25 509.485 194.99 509.485 178.26C509.485 143.81 486.275 119.76 453.025 119.76C416.605 119.76 393.085 146.79 393.085 188.63C393.085 230.47 417.475 256.35 456.775 256.35C472.815 256.35 486.565 252.56 497.635 245.07C504.045 240.89 506.905 236.93 506.905 232.15C506.905 226.08 502.175 219.5 494.545 219.5C491.185 219.5 488.155 221.52 483.955 224.33L483.355 224.74C476.515 229.3 467.965 231.61 457.935 231.61C437.435 231.61 425.235 220.98 421.665 200.02C421.545 199.32 421.735 198.63 422.195 198.1C422.655 197.55 423.325 197.24 424.045 197.24M421.955 172.4C425.335 153.46 436.165 143.04 452.445 143.04C468.725 143.04 480.175 154.06 481.705 172.54C481.755 173.21 481.535 173.84 481.085 174.34C480.625 174.82 480.025 175.11 479.355 175.11H424.215C423.545 175.11 422.895 174.82 422.465 174.29C422.035 173.76 421.845 173.09 421.965 172.42" fill="#00958B"/>
<path d="M705.685 121.19C694.285 121.19 691.885 127.77 691.885 133.27V243.41C691.885 248.91 694.385 255.49 706.265 255.49C718.145 255.49 720.065 248.91 720.065 243.41V133.27C720.065 127.77 717.565 121.19 705.685 121.19Z" fill="#00958B"/>
<path d="M810.715 119.75C771.155 119.75 745.585 146.78 745.585 188.62C745.585 230.46 770.915 256.92 810.135 256.92C849.355 256.92 875.555 229.89 875.555 188.05C875.555 146.21 850.105 119.75 810.715 119.75ZM810.715 233.07C788.795 233.07 774.635 215.4 774.635 188.06C774.635 160.72 788.345 143.34 810.405 143.34C832.465 143.34 846.195 160.7 846.195 188.64C846.195 216.58 832.585 233.08 810.685 233.08" fill="#00958B"/>
<path d="M705.935 63.3301C695.595 63.3301 688.105 70.7201 688.105 80.8701C688.105 91.0201 695.595 98.7001 705.935 98.7001C716.275 98.7001 723.765 91.1901 723.765 80.8701C723.765 70.5501 716.275 63.3301 705.935 63.3301Z" fill="#00958B"/>
<path d="M280.965 310.22C279.225 310.22 278.385 310.99 278.385 312.48V336.33C278.385 338.72 278.065 340.71 277.415 342.39C275.805 346.52 272.385 348.45 267.685 348.45C262.985 348.45 259.565 346.52 257.955 342.39C257.375 340.91 256.985 339.36 256.985 336.33V312.48C256.985 311 256.085 310.22 254.215 310.22C252.345 310.22 251.505 310.99 251.505 312.48V336.33C251.505 339.68 251.955 342.52 252.925 344.77C255.505 350.83 260.725 353.21 267.555 353.21C274.385 353.21 279.675 350.76 282.185 344.77C283.155 342.45 283.605 339.61 283.605 336.26V312.47C283.605 310.99 282.705 310.21 280.965 310.21V310.22ZM321.185 310.22C319.445 310.22 318.605 310.99 318.605 312.48V344.77L298.425 312.99C297.455 311.38 296.235 310.22 293.655 310.22C291.335 310.22 290.105 311.19 290.105 313.25V350.51C290.105 351.99 291.005 352.77 292.745 352.77C294.485 352.77 295.325 352 295.325 350.51V317.64L316.085 349.87C317.245 351.74 318.345 352.77 320.595 352.77C322.725 352.77 323.815 351.8 323.815 349.74V312.48C323.815 311 322.915 310.22 321.175 310.22H321.185ZM333.125 310.22C331.255 310.22 330.415 310.99 330.415 312.48V350.51C330.415 351.99 331.315 352.77 333.185 352.77C335.055 352.77 335.895 352 335.895 350.51V312.48C335.895 311 334.995 310.22 333.125 310.22ZM352.655 310.09C350.015 310.09 346.785 310.35 345.115 310.73C342.405 311.37 342.405 312.99 342.405 314.66V348.31C342.405 350.11 342.405 351.53 345.115 352.24C346.985 352.69 349.945 352.88 352.465 352.88C367.225 352.88 375.925 345.21 375.925 331.35C375.925 317.49 367.605 310.08 352.655 310.08V310.09ZM352.655 348.12C351.105 348.12 349.435 347.99 347.885 347.73V315.24C349.435 314.98 351.105 314.85 352.655 314.85C364.065 314.85 370.185 320.72 370.185 331.48C370.185 342.24 364.125 348.11 352.655 348.11V348.12ZM398.035 313.12C397.265 311.06 396.555 310.22 394.165 310.22C391.975 310.22 391.135 310.93 390.295 313.12L376.305 349.28C376.115 349.8 375.855 350.63 375.855 351.21C375.855 352.11 376.435 352.76 378.305 352.76C380.175 352.76 380.945 352.05 381.395 350.7L384.945 341.29H402.995L406.475 350.7C406.925 352.18 407.765 352.76 409.695 352.76C411.625 352.76 412.205 352.12 412.205 351.21C412.205 350.63 411.945 349.79 411.755 349.28L398.025 313.12H398.035ZM386.695 336.58L394.045 317.05L401.265 336.58H386.695ZM425.955 310.09C423.315 310.09 420.085 310.35 418.415 310.73C415.705 311.37 415.705 312.99 415.705 314.66V348.31C415.705 350.11 415.705 351.53 418.415 352.24C420.285 352.69 423.245 352.88 425.765 352.88C440.525 352.88 449.225 345.21 449.225 331.35C449.225 317.49 440.905 310.08 425.955 310.08V310.09ZM425.955 348.12C424.405 348.12 422.735 347.99 421.185 347.73V315.24C422.735 314.98 424.405 314.85 425.955 314.85C437.365 314.85 443.485 320.72 443.485 331.48C443.485 342.24 437.425 348.11 425.955 348.11V348.12ZM476.435 347.54H459.095V333.1H473.405C474.885 333.1 475.665 332.26 475.665 330.65C475.665 329.04 474.895 328.26 473.405 328.26H459.095V315.43H475.915C477.395 315.43 478.175 314.59 478.175 312.98C478.175 311.37 477.405 310.53 475.915 310.53H456.645C454.645 310.53 453.805 311.37 453.805 313.37V349.6C453.805 351.6 454.645 352.44 456.645 352.44H476.435C477.915 352.44 478.695 351.6 478.695 349.99C478.695 348.38 477.925 347.54 476.435 347.54ZM524.465 310.22C522.725 310.22 521.885 310.99 521.885 312.48V344.77L501.705 312.99C500.735 311.38 499.515 310.22 496.935 310.22C494.615 310.22 493.385 311.19 493.385 313.25V350.51C493.385 351.99 494.285 352.77 496.025 352.77C497.765 352.77 498.605 352 498.605 350.51V317.64L519.365 349.87C520.525 351.74 521.625 352.77 523.875 352.77C526.005 352.77 527.095 351.8 527.095 349.74V312.48C527.095 311 526.195 310.22 524.455 310.22H524.465ZM551.925 309.76C539.675 309.76 531.745 318.33 531.745 331.48C531.745 344.63 539.675 353.2 551.925 353.2C564.175 353.2 572.035 344.63 572.035 331.48C572.035 318.33 564.105 309.76 551.925 309.76ZM551.925 348.44C543.155 348.44 537.425 341.87 537.425 331.49C537.425 321.11 543.165 314.54 551.925 314.54C560.685 314.54 566.365 321.12 566.365 331.49C566.365 341.86 560.625 348.44 551.925 348.44ZM594.345 335.61C599.885 333.48 602.985 329.16 602.985 323.3C602.985 314.66 596.345 310.09 586.225 310.09C583.845 310.09 581.005 310.35 579.395 310.8C576.685 311.44 576.625 312.86 576.625 314.67V350.51C576.625 351.99 577.525 352.77 579.265 352.77C581.005 352.77 581.905 352 581.905 350.51V336.97C582.745 337.1 584.355 337.16 585.065 337.16C586.485 337.16 587.835 337.1 589.125 336.9L598.405 350.24C599.505 351.98 600.275 352.75 602.535 352.75C604.405 352.75 605.115 352.23 605.115 351.27C605.115 350.69 604.795 350.04 603.435 348.11L594.345 335.61ZM585.265 332.45C584.165 332.45 583.005 332.39 581.975 332.26V315.24C583.265 314.98 584.745 314.85 586.165 314.85C592.935 314.85 597.315 317.62 597.315 323.55C597.315 329.09 593.255 332.45 585.265 332.45ZM634.575 310.54H606.015C604.535 310.54 603.755 311.38 603.755 312.99C603.755 314.6 604.525 315.44 606.015 315.44H617.555V350.51C617.555 351.99 618.455 352.77 620.325 352.77C622.195 352.77 623.035 352 623.035 350.51V315.44H634.575C636.055 315.44 636.835 314.6 636.835 312.99C636.835 311.38 636.065 310.54 634.575 310.54ZM662.625 347.54H645.285V333.1H659.595C661.075 333.1 661.855 332.26 661.855 330.65C661.855 329.04 661.085 328.26 659.595 328.26H645.285V315.43H662.105C663.585 315.43 664.365 314.59 664.365 312.98C664.365 311.37 663.595 310.53 662.105 310.53H642.835C640.835 310.53 639.995 311.37 639.995 313.37V349.6C639.995 351.6 640.835 352.44 642.835 352.44H662.625C664.105 352.44 664.885 351.6 664.885 349.99C664.885 348.38 664.115 347.54 662.625 347.54ZM689.825 310.09C687.185 310.09 683.955 310.35 682.285 310.73C679.575 311.37 679.575 312.99 679.575 314.66V348.31C679.575 350.11 679.575 351.53 682.285 352.24C684.155 352.69 687.115 352.88 689.635 352.88C704.395 352.88 713.095 345.21 713.095 331.35C713.095 317.49 704.775 310.08 689.825 310.08V310.09ZM689.825 348.12C688.275 348.12 686.605 347.99 685.055 347.73V315.24C686.605 314.98 688.275 314.85 689.825 314.85C701.235 314.85 707.355 320.72 707.355 331.48C707.355 342.24 701.295 348.11 689.825 348.11V348.12ZM735.925 309.76C723.675 309.76 715.745 318.33 715.745 331.48C715.745 344.63 723.675 353.2 735.925 353.2C748.175 353.2 756.035 344.63 756.035 331.48C756.035 318.33 748.105 309.76 735.925 309.76ZM735.925 348.44C727.155 348.44 721.425 341.87 721.425 331.49C721.425 321.11 727.165 314.54 735.925 314.54C744.685 314.54 750.365 321.12 750.365 331.49C750.365 341.86 744.625 348.44 735.925 348.44ZM781.055 310.09C778.665 310.09 775.765 310.35 774.095 310.73C771.385 311.37 771.385 312.99 771.385 314.66V350.5C771.385 351.98 772.285 352.76 774.155 352.76C776.025 352.76 776.865 351.99 776.865 350.5V338.96C778.345 339.28 779.955 339.41 781.695 339.41C791.105 339.41 798.265 334.51 798.265 324.58C798.265 314.65 790.985 310.08 781.055 310.08V310.09ZM781.315 334.71C779.965 334.71 778.415 334.58 776.865 334.26V315.24C778.345 314.98 779.765 314.85 780.995 314.85C787.505 314.85 792.535 317.69 792.535 324.78C792.535 331.23 788.345 334.71 781.315 334.71ZM817.995 313.12C817.225 311.06 816.515 310.22 814.125 310.22C811.935 310.22 811.095 310.93 810.255 313.12L796.265 349.28C796.075 349.8 795.815 350.63 795.815 351.21C795.815 352.11 796.395 352.76 798.265 352.76C800.135 352.76 800.905 352.05 801.355 350.7L804.905 341.29H822.955L826.435 350.7C826.885 352.18 827.725 352.76 829.655 352.76C831.585 352.76 832.165 352.12 832.165 351.21C832.165 350.63 831.905 349.79 831.715 349.28L817.985 313.12H817.995ZM806.645 336.58L813.995 317.05L821.215 336.58H806.645ZM853.385 335.61C858.925 333.48 862.025 329.16 862.025 323.3C862.025 314.66 855.385 310.09 845.265 310.09C842.885 310.09 840.045 310.35 838.435 310.8C835.725 311.44 835.665 312.86 835.665 314.67V350.51C835.665 351.99 836.565 352.77 838.305 352.77C840.045 352.77 840.945 352 840.945 350.51V336.97C841.785 337.1 843.395 337.16 844.105 337.16C845.525 337.16 846.875 337.1 848.165 336.9L857.445 350.24C858.545 351.98 859.315 352.75 861.575 352.75C863.445 352.75 864.155 352.23 864.155 351.27C864.155 350.69 863.835 350.04 862.475 348.11L853.385 335.61ZM844.295 332.45C843.195 332.45 842.035 332.39 841.005 332.26V315.24C842.295 314.98 843.775 314.85 845.195 314.85C851.965 314.85 856.345 317.62 856.345 323.55C856.345 329.09 852.285 332.45 844.295 332.45ZM886.715 313.12C885.945 311.06 885.235 310.22 882.845 310.22C880.655 310.22 879.815 310.93 878.975 313.12L864.985 349.28C864.795 349.8 864.535 350.63 864.535 351.21C864.535 352.11 865.115 352.76 866.985 352.76C868.855 352.76 869.625 352.05 870.075 350.7L873.625 341.29H891.675L895.155 350.7C895.605 352.18 896.445 352.76 898.375 352.76C900.305 352.76 900.885 352.12 900.885 351.21C900.885 350.63 900.625 349.79 900.435 349.28L886.705 313.12H886.715ZM875.375 336.58L882.725 317.05L889.945 336.58H875.375ZM935.455 310.22C933.715 310.22 932.875 310.99 932.875 312.48V344.77L912.695 312.99C911.725 311.38 910.505 310.22 907.925 310.22C905.605 310.22 904.375 311.19 904.375 313.25V350.51C904.375 351.99 905.275 352.77 907.015 352.77C908.755 352.77 909.595 352 909.595 350.51V317.64L930.355 349.87C931.515 351.74 932.615 352.77 934.865 352.77C936.995 352.77 938.085 351.8 938.085 349.74V312.48C938.085 311 937.185 310.22 935.445 310.22H935.455ZM957.635 307.19C958.345 307.19 959.185 306.87 962.595 304.74C965.495 302.94 967.425 302.1 967.425 300.68C967.425 299.58 966.655 298.04 965.105 298.04C964.335 298.04 963.685 298.36 962.655 299.07L957.755 302.36C956.335 303.33 955.495 303.84 955.495 304.94C955.495 305.97 956.265 307.2 957.625 307.2L957.635 307.19ZM977.555 349.28L963.825 313.12C963.055 311.06 962.345 310.22 959.955 310.22C957.765 310.22 956.925 310.93 956.085 313.12L942.095 349.28C941.905 349.8 941.645 350.63 941.645 351.21C941.645 352.11 942.225 352.76 944.095 352.76C945.965 352.76 946.735 352.05 947.185 350.7L950.735 341.29H968.785L972.265 350.7C972.715 352.18 973.555 352.76 975.485 352.76C977.415 352.76 977.995 352.12 977.995 351.21C977.995 350.63 977.735 349.79 977.545 349.28H977.555ZM952.475 336.58L959.825 317.05L967.045 336.58H952.475Z" fill="#00958B"/>
</svg>
