<svg width="966" height="320" viewBox="0 0 966 320" fill="none" xmlns="http://www.w3.org/2000/svg">
<path d="M84.865 47.59L43.165 89.29C29.795 102.66 29.795 124.34 43.165 137.71L84.865 179.41C97.995 192.54 97.995 213.84 84.865 226.99L20.235 162.36C-6.745 135.38 -6.745 91.64 20.235 64.65L84.865 0C97.995 13.13 97.995 34.43 84.865 47.58V47.59Z" fill="#00958B"/>
<path d="M85.3748 271.76L127.075 230.06C140.445 216.69 140.445 195.01 127.075 181.64L85.3748 139.94C72.2448 126.81 72.2448 105.51 85.3748 92.3599L150.005 156.99C176.985 183.97 176.985 227.71 150.005 254.7L85.3748 319.33C72.2448 306.2 72.2448 284.9 85.3748 271.75V271.77V271.76Z" fill="#00958B"/>
<path d="M584.99 73.5601C545.76 73.6301 520.27 100.42 520.03 141.86V197.22C520.03 202.72 522.6 209.3 534.87 209.3C547.14 209.3 549.11 202.72 549.11 197.22V141.86C549.11 114.28 562.82 97.14 584.83 97.14H585.17C607.23 97.14 620.94 114.28 620.94 141.86V197.22C620.94 202.72 623.41 209.3 635.18 209.3C646.95 209.3 650.02 202.72 650.02 197.22V141.86C649.78 100.45 624.28 73.6301 585.06 73.5901" fill="#00958B"/>
<path d="M953.4 73.5601H952.78C913.55 73.6301 888.06 100.42 887.82 141.86V197.22C887.82 202.72 890.39 209.3 902.66 209.3C914.93 209.3 916.9 202.72 916.9 197.22V141.86C916.9 114.28 930.61 97.14 952.62 97.14H953.05C956.12 97.16 959.32 95.92 961.6 93.64C963.81 91.43 965.03 88.5001 965.03 85.3801C965.03 78.9201 959.82 73.64 953.41 73.57" fill="#00958B"/>
<path d="M301.36 96.08C280.91 87.37 263.24 79.85 263.24 63.43C263.24 48.35 276.49 38.61 297.02 38.61C308.09 38.61 317.71 41.47 329.19 48.14C330.41 48.84 331.47 49.48 332.43 50.06C336.08 52.27 338.26 53.59 340.83 53.59C347.84 53.59 353.48 45.72 353.48 39.21C353.48 33.5 348.34 29.34 342.77 25.72C330.36 17.63 313.67 13 296.99 13C259.76 13 234.74 33.84 234.74 64.85C234.74 97.55 263.04 109.67 288.01 120.35C309.86 129.71 328.73 137.78 328.73 156.82C328.73 174.08 313.65 185.68 291.21 185.68C278.97 185.68 268.31 182.06 256.57 173.89L253.95 172.11C249.58 169.13 247.18 167.5 243.65 167.5C236.83 167.5 231 175.25 231 181.59C231 186.37 234.19 190.78 241.32 195.87C255.15 205.93 272.29 211.23 290.92 211.23C330.55 211.23 357.2 188.76 357.2 155.32C357.2 119.79 327.53 107.14 301.34 96" fill="#00958B"/>
<path d="M411.04 151.06H475.5C485.89 151.06 496.51 148.8 496.51 132.07C496.51 97.6198 473.3 73.5698 440.05 73.5698C403.63 73.5698 380.11 100.6 380.11 142.44C380.11 184.28 404.5 210.16 443.8 210.16C459.84 210.16 473.59 206.37 484.66 198.88C491.07 194.7 493.93 190.74 493.93 185.96C493.93 179.89 489.2 173.31 481.57 173.31C478.21 173.31 475.18 175.33 470.98 178.14L470.38 178.55C463.54 183.11 454.99 185.42 444.96 185.42C424.46 185.42 412.26 174.79 408.69 153.83C408.57 153.13 408.76 152.44 409.22 151.91C409.68 151.36 410.35 151.05 411.07 151.05M408.98 126.21C412.36 107.27 423.19 96.8498 439.47 96.8498C455.75 96.8498 467.2 107.87 468.73 126.35C468.78 127.02 468.56 127.65 468.11 128.15C467.65 128.63 467.05 128.92 466.38 128.92H411.24C410.57 128.92 409.92 128.63 409.49 128.1C409.06 127.57 408.87 126.9 408.99 126.23" fill="#00958B"/>
<path d="M692.71 75C681.31 75 678.91 81.58 678.91 87.08V197.22C678.91 202.72 681.41 209.3 693.29 209.3C705.17 209.3 707.09 202.72 707.09 197.22V87.08C707.09 81.58 704.59 75 692.71 75Z" fill="#00958B"/>
<path d="M797.74 73.5601C758.18 73.5601 732.61 100.59 732.61 142.43C732.61 184.27 757.94 210.73 797.16 210.73C836.38 210.73 862.58 183.7 862.58 141.86C862.58 100.02 837.13 73.5601 797.74 73.5601ZM797.74 186.88C775.82 186.88 761.66 169.21 761.66 141.87C761.66 114.53 775.37 97.1501 797.43 97.1501C819.49 97.1501 833.22 114.51 833.22 142.45C833.22 170.39 819.61 186.89 797.71 186.89" fill="#00958B"/>
<path d="M692.96 17.1401C682.62 17.1401 675.13 24.5301 675.13 34.6801C675.13 44.8301 682.62 52.5101 692.96 52.5101C703.3 52.5101 710.79 45.0001 710.79 34.6801C710.79 24.3601 703.3 17.1401 692.96 17.1401Z" fill="#00958B"/>
<path d="M267.99 264.03C266.25 264.03 265.41 264.8 265.41 266.29V290.14C265.41 292.53 265.09 294.52 264.44 296.2C262.83 300.33 259.41 302.26 254.71 302.26C250.01 302.26 246.59 300.33 244.98 296.2C244.4 294.72 244.01 293.17 244.01 290.14V266.29C244.01 264.81 243.11 264.03 241.24 264.03C239.37 264.03 238.53 264.8 238.53 266.29V290.14C238.53 293.49 238.98 296.33 239.95 298.58C242.53 304.64 247.75 307.02 254.58 307.02C261.41 307.02 266.7 304.57 269.21 298.58C270.18 296.26 270.63 293.42 270.63 290.07V266.28C270.63 264.8 269.73 264.02 267.99 264.02V264.03ZM308.21 264.03C306.47 264.03 305.63 264.8 305.63 266.29V298.58L285.45 266.8C284.48 265.19 283.26 264.03 280.68 264.03C278.36 264.03 277.13 265 277.13 267.06V304.32C277.13 305.8 278.03 306.58 279.77 306.58C281.51 306.58 282.35 305.81 282.35 304.32V271.45L303.11 303.68C304.27 305.55 305.37 306.58 307.62 306.58C309.75 306.58 310.84 305.61 310.84 303.55V266.29C310.84 264.81 309.94 264.03 308.2 264.03H308.21ZM320.15 264.03C318.28 264.03 317.44 264.8 317.44 266.29V304.32C317.44 305.8 318.34 306.58 320.21 306.58C322.08 306.58 322.92 305.81 322.92 304.32V266.29C322.92 264.81 322.02 264.03 320.15 264.03ZM339.68 263.9C337.04 263.9 333.81 264.16 332.14 264.54C329.43 265.18 329.43 266.8 329.43 268.47V302.12C329.43 303.92 329.43 305.34 332.14 306.05C334.01 306.5 336.97 306.69 339.49 306.69C354.25 306.69 362.95 299.02 362.95 285.16C362.95 271.3 354.63 263.89 339.68 263.89V263.9ZM339.68 301.93C338.13 301.93 336.46 301.8 334.91 301.54V269.05C336.46 268.79 338.13 268.66 339.68 268.66C351.09 268.66 357.21 274.53 357.21 285.29C357.21 296.05 351.15 301.92 339.68 301.92V301.93ZM385.06 266.93C384.29 264.87 383.58 264.03 381.19 264.03C379 264.03 378.16 264.74 377.32 266.93L363.33 303.09C363.14 303.61 362.88 304.44 362.88 305.02C362.88 305.92 363.46 306.57 365.33 306.57C367.2 306.57 367.97 305.86 368.42 304.51L371.97 295.1H390.02L393.5 304.51C393.95 305.99 394.79 306.57 396.72 306.57C398.65 306.57 399.23 305.93 399.23 305.02C399.23 304.44 398.97 303.6 398.78 303.09L385.05 266.93H385.06ZM373.72 290.39L381.07 270.86L388.29 290.39H373.72ZM412.98 263.9C410.34 263.9 407.11 264.16 405.44 264.54C402.73 265.18 402.73 266.8 402.73 268.47V302.12C402.73 303.92 402.73 305.34 405.44 306.05C407.31 306.5 410.27 306.69 412.79 306.69C427.55 306.69 436.25 299.02 436.25 285.16C436.25 271.3 427.93 263.89 412.98 263.89V263.9ZM412.98 301.93C411.43 301.93 409.76 301.8 408.21 301.54V269.05C409.76 268.79 411.43 268.66 412.98 268.66C424.39 268.66 430.51 274.53 430.51 285.29C430.51 296.05 424.45 301.92 412.98 301.92V301.93ZM463.46 301.35H446.12V286.91H460.43C461.91 286.91 462.69 286.07 462.69 284.46C462.69 282.85 461.92 282.07 460.43 282.07H446.12V269.24H462.94C464.42 269.24 465.2 268.4 465.2 266.79C465.2 265.18 464.43 264.34 462.94 264.34H443.67C441.67 264.34 440.83 265.18 440.83 267.18V303.41C440.83 305.41 441.67 306.25 443.67 306.25H463.46C464.94 306.25 465.72 305.41 465.72 303.8C465.72 302.19 464.95 301.35 463.46 301.35ZM511.49 264.03C509.75 264.03 508.91 264.8 508.91 266.29V298.58L488.73 266.8C487.76 265.19 486.54 264.03 483.96 264.03C481.64 264.03 480.41 265 480.41 267.06V304.32C480.41 305.8 481.31 306.58 483.05 306.58C484.79 306.58 485.63 305.81 485.63 304.32V271.45L506.39 303.68C507.55 305.55 508.65 306.58 510.9 306.58C513.03 306.58 514.12 305.61 514.12 303.55V266.29C514.12 264.81 513.22 264.03 511.48 264.03H511.49ZM538.95 263.57C526.7 263.57 518.77 272.14 518.77 285.29C518.77 298.44 526.7 307.01 538.95 307.01C551.2 307.01 559.06 298.44 559.06 285.29C559.06 272.14 551.13 263.57 538.95 263.57ZM538.95 302.25C530.18 302.25 524.45 295.68 524.45 285.3C524.45 274.92 530.19 268.35 538.95 268.35C547.71 268.35 553.39 274.93 553.39 285.3C553.39 295.67 547.65 302.25 538.95 302.25ZM581.37 289.42C586.91 287.29 590.01 282.97 590.01 277.11C590.01 268.47 583.37 263.9 573.25 263.9C570.87 263.9 568.03 264.16 566.42 264.61C563.71 265.25 563.65 266.67 563.65 268.48V304.32C563.65 305.8 564.55 306.58 566.29 306.58C568.03 306.58 568.93 305.81 568.93 304.32V290.78C569.77 290.91 571.38 290.97 572.09 290.97C573.51 290.97 574.86 290.91 576.15 290.71L585.43 304.05C586.53 305.79 587.3 306.56 589.56 306.56C591.43 306.56 592.14 306.04 592.14 305.08C592.14 304.5 591.82 303.85 590.46 301.92L581.37 289.42ZM572.29 286.26C571.19 286.26 570.03 286.2 569 286.07V269.05C570.29 268.79 571.77 268.66 573.19 268.66C579.96 268.66 584.34 271.43 584.34 277.36C584.34 282.9 580.28 286.26 572.29 286.26ZM621.6 264.35H593.04C591.56 264.35 590.78 265.19 590.78 266.8C590.78 268.41 591.55 269.25 593.04 269.25H604.58V304.32C604.58 305.8 605.48 306.58 607.35 306.58C609.22 306.58 610.06 305.81 610.06 304.32V269.25H621.6C623.08 269.25 623.86 268.41 623.86 266.8C623.86 265.19 623.09 264.35 621.6 264.35ZM649.65 301.35H632.31V286.91H646.62C648.1 286.91 648.88 286.07 648.88 284.46C648.88 282.85 648.11 282.07 646.62 282.07H632.31V269.24H649.13C650.61 269.24 651.39 268.4 651.39 266.79C651.39 265.18 650.62 264.34 649.13 264.34H629.86C627.86 264.34 627.02 265.18 627.02 267.18V303.41C627.02 305.41 627.86 306.25 629.86 306.25H649.65C651.13 306.25 651.91 305.41 651.91 303.8C651.91 302.19 651.14 301.35 649.65 301.35ZM676.85 263.9C674.21 263.9 670.98 264.16 669.31 264.54C666.6 265.18 666.6 266.8 666.6 268.47V302.12C666.6 303.92 666.6 305.34 669.31 306.05C671.18 306.5 674.14 306.69 676.66 306.69C691.42 306.69 700.12 299.02 700.12 285.16C700.12 271.3 691.8 263.89 676.85 263.89V263.9ZM676.85 301.93C675.3 301.93 673.63 301.8 672.08 301.54V269.05C673.63 268.79 675.3 268.66 676.85 268.66C688.26 268.66 694.38 274.53 694.38 285.29C694.38 296.05 688.32 301.92 676.85 301.92V301.93ZM722.95 263.57C710.7 263.57 702.77 272.14 702.77 285.29C702.77 298.44 710.7 307.01 722.95 307.01C735.2 307.01 743.06 298.44 743.06 285.29C743.06 272.14 735.13 263.57 722.95 263.57ZM722.95 302.25C714.18 302.25 708.45 295.68 708.45 285.3C708.45 274.92 714.19 268.35 722.95 268.35C731.71 268.35 737.39 274.93 737.39 285.3C737.39 295.67 731.65 302.25 722.95 302.25ZM768.08 263.9C765.69 263.9 762.79 264.16 761.12 264.54C758.41 265.18 758.41 266.8 758.41 268.47V304.31C758.41 305.79 759.31 306.57 761.18 306.57C763.05 306.57 763.89 305.8 763.89 304.31V292.77C765.37 293.09 766.98 293.22 768.72 293.22C778.13 293.22 785.29 288.32 785.29 278.39C785.29 268.46 778.01 263.89 768.08 263.89V263.9ZM768.34 288.52C766.99 288.52 765.44 288.39 763.89 288.07V269.05C765.37 268.79 766.79 268.66 768.02 268.66C774.53 268.66 779.56 271.5 779.56 278.59C779.56 285.04 775.37 288.52 768.34 288.52ZM805.02 266.93C804.25 264.87 803.54 264.03 801.15 264.03C798.96 264.03 798.12 264.74 797.28 266.93L783.29 303.09C783.1 303.61 782.84 304.44 782.84 305.02C782.84 305.92 783.42 306.57 785.29 306.57C787.16 306.57 787.93 305.86 788.38 304.51L791.93 295.1H809.98L813.46 304.51C813.91 305.99 814.75 306.57 816.68 306.57C818.61 306.57 819.19 305.93 819.19 305.02C819.19 304.44 818.93 303.6 818.74 303.09L805.01 266.93H805.02ZM793.67 290.39L801.02 270.86L808.24 290.39H793.67ZM840.41 289.42C845.95 287.29 849.05 282.97 849.05 277.11C849.05 268.47 842.41 263.9 832.29 263.9C829.91 263.9 827.07 264.16 825.46 264.61C822.75 265.25 822.69 266.67 822.69 268.48V304.32C822.69 305.8 823.59 306.58 825.33 306.58C827.07 306.58 827.97 305.81 827.97 304.32V290.78C828.81 290.91 830.42 290.97 831.13 290.97C832.55 290.97 833.9 290.91 835.19 290.71L844.47 304.05C845.57 305.79 846.34 306.56 848.6 306.56C850.47 306.56 851.18 306.04 851.18 305.08C851.18 304.5 850.86 303.85 849.5 301.92L840.41 289.42ZM831.32 286.26C830.22 286.26 829.06 286.2 828.03 286.07V269.05C829.32 268.79 830.8 268.66 832.22 268.66C838.99 268.66 843.37 271.43 843.37 277.36C843.37 282.9 839.31 286.26 831.32 286.26ZM873.74 266.93C872.97 264.87 872.26 264.03 869.87 264.03C867.68 264.03 866.84 264.74 866 266.93L852.01 303.09C851.82 303.61 851.56 304.44 851.56 305.02C851.56 305.92 852.14 306.57 854.01 306.57C855.88 306.57 856.65 305.86 857.1 304.51L860.65 295.1H878.7L882.18 304.51C882.63 305.99 883.47 306.57 885.4 306.57C887.33 306.57 887.91 305.93 887.91 305.02C887.91 304.44 887.65 303.6 887.46 303.09L873.73 266.93H873.74ZM862.4 290.39L869.75 270.86L876.97 290.39H862.4ZM922.48 264.03C920.74 264.03 919.9 264.8 919.9 266.29V298.58L899.72 266.8C898.75 265.19 897.53 264.03 894.95 264.03C892.63 264.03 891.4 265 891.4 267.06V304.32C891.4 305.8 892.3 306.58 894.04 306.58C895.78 306.58 896.62 305.81 896.62 304.32V271.45L917.38 303.68C918.54 305.55 919.64 306.58 921.89 306.58C924.02 306.58 925.11 305.61 925.11 303.55V266.29C925.11 264.81 924.21 264.03 922.47 264.03H922.48ZM944.66 261C945.37 261 946.21 260.68 949.62 258.55C952.52 256.75 954.45 255.91 954.45 254.49C954.45 253.39 953.68 251.85 952.13 251.85C951.36 251.85 950.71 252.17 949.68 252.88L944.78 256.17C943.36 257.14 942.52 257.65 942.52 258.75C942.52 259.78 943.29 261.01 944.65 261.01L944.66 261ZM964.58 303.09L950.85 266.93C950.08 264.87 949.37 264.03 946.98 264.03C944.79 264.03 943.95 264.74 943.11 266.93L929.12 303.09C928.93 303.61 928.67 304.44 928.67 305.02C928.67 305.92 929.25 306.57 931.12 306.57C932.99 306.57 933.76 305.86 934.21 304.51L937.76 295.1H955.81L959.29 304.51C959.74 305.99 960.58 306.57 962.51 306.57C964.44 306.57 965.02 305.93 965.02 305.02C965.02 304.44 964.76 303.6 964.57 303.09H964.58ZM939.5 290.39L946.85 270.86L954.07 290.39H939.5Z" fill="#00958B"/>
</svg>
